<svg width="20" height="20" fill="none" xmlns="http://www.w3.org/2000/svg"><path fill-rule="evenodd" clip-rule="evenodd" d="M3.53 1.765a1.765 1.765 0 11-3.53 0 1.765 1.765 0 013.53 0zm0 8.235A1.765 1.765 0 110 10a1.765 1.765 0 013.53 0zM1.764 20a1.765 1.765 0 100-3.53 1.765 1.765 0 000 3.53zM20 1.765a1.765 1.765 0 11-3.53 0 1.765 1.765 0 013.53 0zm-1.765 10a1.765 1.765 0 100-3.53 1.765 1.765 0 000 3.53zM20 18.235a1.765 1.765 0 11-3.53 0 1.765 1.765 0 013.53 0zM10 3.53A1.765 1.765 0 1010 0a1.765 1.765 0 000 3.53zM11.765 10a1.765 1.765 0 11-3.53 0 1.765 1.765 0 013.53 0zM10 20a1.765 1.765 0 100-3.53A1.765 1.765 0 0010 20z" fill="#222"/><mask id="a" style="mask-type:alpha" maskUnits="userSpaceOnUse" x="0" y="0" width="20" height="20"><path fill-rule="evenodd" clip-rule="evenodd" d="M3.53 1.765a1.765 1.765 0 11-3.53 0 1.765 1.765 0 013.53 0zm0 8.235A1.765 1.765 0 110 10a1.765 1.765 0 013.53 0zM1.764 20a1.765 1.765 0 100-3.53 1.765 1.765 0 000 3.53zM20 1.765a1.765 1.765 0 11-3.53 0 1.765 1.765 0 013.53 0zm-1.765 10a1.765 1.765 0 100-3.53 1.765 1.765 0 000 3.53zM20 18.235a1.765 1.765 0 11-3.53 0 1.765 1.765 0 013.53 0zM10 3.53A1.765 1.765 0 1010 0a1.765 1.765 0 000 3.53zM11.765 10a1.765 1.765 0 11-3.53 0 1.765 1.765 0 013.53 0zM10 20a1.765 1.765 0 100-3.53A1.765 1.765 0 0010 20z" fill="#fff"/></mask></svg>